{"title":"Anna.Lovatos.Catwalk.2012.DVDRip.x264.Iou1","uid":8436696,"size":1462163882,"categoryP":"porn","categoryS":"movies","magnet":"?xt=urn:btih:2cc7a9c82966ccf8beec53a858c8394d03a2384f&amp;dn=Anna.Lovatos.Catwalk.2012.DVDRip.x264.Iou1&amp;tr=udp%3A%2F%2Ftracker.openbittorrent.com%3A80&amp;tr=udp%3A%2F%2Fopen.demonii.com%3A1337&amp;tr=udp%3A%2F%2Ftracker.coppersurfer.tk%3A6969&amp;tr=udp%3A%2F%2Fexodus.desync.com%3A6969","seeders":1,"leechers":0,"uploader":"jaybee211","files":-1,"time":1367661042,"description":"Format                                   : MPEG-4\nFormat profile                           : Base Media / Version 2\nCodec ID                                 : mp42\nFile size                                : 1.36 GiB\nDuration                                 : 2h 49mn\nOverall bit rate mode                    : Variable\nOverall bit rate                         : 1 151 Kbps\n\nVideo\nID                                       : 1\nFormat                                   : AVC\nFormat/Info                              : Advanced Video Codec\nFormat profile                           : &lt;a class=&quot;__cf_email__&quot; href=&quot;/cdn-cgi/l/email-protection&quot; data-cfemail=&quot;84ccede3ecc4c8b7aab4&quot;&gt;[email&amp;#160;protected]&lt;/a&gt;&lt;script data-cfhash='f9e31' type=&quot;text/javascript&quot;&gt;\n/* &lt;![CDATA[ */!function(){try{var t=&quot;currentScript&quot;in document?document.currentScript:function(){for(var t=document.getElementsByTagName(&quot;script&quot;),e=t.length;e--;)if(t[e].getAttribute(&quot;data-cfhash&quot;))return t[e]}();if(t&amp;&amp;t.previousSibling){var e,r,n,i,c=t.previousSibling,a=c.getAttribute(&quot;data-cfemail&quot;);if(a){for(e=&quot;&quot;,r=parseInt(a.substr(0,2),16),n=2;a.length-n;n+=2)i=parseInt(a.substr(n,2),16)^r,e+=String.fromCharCode(i);e=document.createTextNode(e),c.parentNode.replaceChild(e,c)}t.parentNode.removeChild(t);}}catch(u){}}()/* ]]&gt; */&lt;/script&gt;\nFormat settings, CABAC                   : Yes\nFormat settings, ReFrames                : 4 frames\nCodec ID                                 : avc1\nCodec ID/Info                            : Advanced Video Coding\nDuration                                 : 2h 49mn\nBit rate mode                            : Variable\nBit rate                                 : 1 084 Kbps\nMaximum bit rate                         : 2 162 Kbps\nWidth                                    : 720 pixels\nHeight                                   : 400 pixels\nDisplay aspect ratio                     : 16:9\nFrame rate mode                          : Constant\nFrame rate                               : 23.976 fps\nColor space                              : YUV\nChroma subsampling                       : 4:2:0\nBit depth                                : 8 bits\nScan type                                : Progressive\nBits/(Pixel*Frame)                       : 0.157\nStream size                              : 1.28 GiB (94%)\nLanguage                                 : English\n\nAudio\nID                                       : 2\nFormat                                   : AAC\nFormat/Info                              : Advanced Audio Codec\nFormat profile                           : LC\nCodec ID                                 : 40\nDuration                                 : 2h 49mn\nBit rate mode                            : Variable\nBit rate                                 : 61.9 Kbps\nMaximum bit rate                         : 71.7 Kbps\nChannel(s)                               : 2 channels\nChannel positions                        : Front: L R\nSampling rate                            : 48.0 KHz\nCompression mode                         : Lossy\nStream size                              : 75.0 MiB (5%)\nTitle                                    : MP3 2-ch 48KHz\nLanguage                                 : English\n\nScreens &lt;a href=&quot; http://bayimg.com/FAMnAaaei&quot; rel=&quot;nofollow&quot; target=&quot;_NEW&quot;&gt; http://bayimg.com/FAMnAaaei&lt;/a&gt;\n\n        &lt;a href=&quot; http://bayimg.com/fAMNcaAEi&quot; rel=&quot;nofollow&quot; target=&quot;_NEW&quot;&gt; http://bayimg.com/fAMNcaAEi&lt;/a&gt;\n\n        &lt;a href=&quot; http://bayimg.com/FAMNdAAei&quot; rel=&quot;nofollow&quot; target=&quot;_NEW&quot;&gt; http://bayimg.com/FAMNdAAei&lt;/a&gt;\n\nEnjoy.","torrent":{"xt":"urn:btih:2cc7a9c82966ccf8beec53a858c8394d03a2384f","amp;dn":"Anna.Lovatos.Catwalk.2012.DVDRip.x264.Iou1","amp;tr":["udp%3A%2F%2Ftracker.openbittorrent.com%3A80","udp%3A%2F%2Fopen.demonii.com%3A1337","udp%3A%2F%2Ftracker.coppersurfer.tk%3A6969","udp%3A%2F%2Fexodus.desync.com%3A6969"],"infoHash":"2cc7a9c82966ccf8beec53a858c8394d03a2384f","infoHashBuffer":{"type":"Buffer","data":[44,199,169,200,41,102,204,248,190,236,83,168,88,200,57,77,3,162,56,79]},"announce":[],"urlList":[]}}